<?xml version="1.0" standalone="no"?>
<!DOCTYPE svg PUBLIC "-//W3C//DTD SVG 20010904//EN"
 "http://www.w3.org/TR/2001/REC-SVG-20010904/DTD/svg10.dtd">
<svg version="1.0" xmlns="http://www.w3.org/2000/svg"
 width="1022.000000pt" height="1022.000000pt" viewBox="0 0 1022.000000 1022.000000"
 preserveAspectRatio="xMidYMid meet">
<metadata>
Created by potrace 1.11, written by Peter Selinger 2001-2013
</metadata>
<g transform="translate(0.000000,1022.000000) scale(0.100000,-0.100000)"
fill="#000000" stroke="none">
<path d="M4838 10215 c-2 -2 -52 -6 -112 -9 -60 -4 -112 -8 -115 -10 -3 -2
-37 -7 -76 -10 -38 -4 -81 -9 -95 -11 -14 -2 -47 -6 -75 -10 -47 -6 -287 -49
-330 -59 -145 -33 -229 -54 -232 -56 -3 -3 -6 -3 -53 -14 -31 -7 -126 -37
-170 -53 -8 -3 -22 -7 -30 -8 -8 -1 -55 -17 -105 -35 -49 -17 -96 -32 -102
-33 -7 0 -13 -4 -13 -9 0 -4 -3 -7 -7 -6 -24 7 -519 -211 -534 -234 -3 -6 -9
-9 -13 -9 -17 3 -26 0 -38 -12 -7 -7 -26 -18 -43 -25 -16 -8 -79 -43 -140 -78
-147 -86 -145 -86 -182 -111 -17 -13 -36 -23 -40 -23 -5 0 -18 -8 -29 -17 -30
-27 -175 -123 -185 -123 -5 0 -9 -4 -9 -8 0 -5 -21 -24 -47 -42 -49 -35 -208
-160 -253 -199 -14 -12 -49 -43 -79 -69 -128 -111 -287 -268 -402 -397 -30
-32 -66 -72 -81 -87 -14 -15 -23 -28 -20 -28 4 0 2 -4 -4 -8 -12 -7 -52 -55
-109 -126 -16 -21 -38 -47 -47 -59 -10 -11 -18 -23 -18 -26 0 -4 -15 -23 -32
-42 -18 -20 -34 -42 -36 -49 -2 -8 -13 -22 -24 -32 -12 -10 -18 -18 -14 -18 4
0 1 -7 -7 -15 -8 -8 -25 -31 -38 -52 -13 -21 -26 -40 -29 -43 -3 -3 -38 -57
-78 -120 -39 -63 -76 -121 -82 -127 -6 -7 -8 -13 -4 -13 3 0 0 -7 -7 -16 -15
-19 -20 -26 -78 -136 -108 -203 -234 -476 -276 -598 -1 -3 -7 -18 -14 -35 -6
-16 -15 -41 -20 -55 -5 -14 -13 -34 -17 -45 -4 -11 -8 -22 -8 -25 -1 -3 -4 -9
-7 -15 -4 -5 -10 -26 -14 -45 -4 -19 -10 -39 -14 -45 -3 -5 -6 -13 -7 -17 -1
-5 -3 -10 -4 -13 -1 -3 -3 -8 -4 -12 -1 -5 -10 -34 -19 -65 -10 -32 -18 -61
-18 -65 -1 -5 -6 -19 -11 -33 -6 -14 -12 -38 -15 -55 -3 -16 -9 -38 -14 -47
-5 -10 -8 -18 -5 -18 3 0 0 -15 -5 -32 -6 -18 -12 -44 -15 -58 -3 -14 -9 -44
-15 -68 -5 -23 -12 -59 -15 -80 -3 -20 -8 -41 -11 -45 -3 -5 -7 -23 -9 -40 -2
-29 -6 -50 -18 -112 -11 -58 -24 -157 -31 -235 -3 -30 -7 -68 -9 -85 -20 -132
-28 -663 -13 -850 13 -161 44 -432 52 -444 1 -3 6 -28 9 -56 6 -42 36 -196 51
-260 7 -30 15 -67 21 -93 7 -33 51 -191 88 -317 2 -5 6 -17 9 -25 3 -8 11 -33
17 -55 6 -22 15 -49 20 -60 10 -23 23 -58 25 -65 0 -3 9 -30 20 -60 11 -30 19
-59 20 -63 0 -4 7 -12 15 -17 8 -5 12 -10 8 -10 -8 0 21 -79 48 -134 8 -16 14
-35 14 -43 0 -7 5 -13 10 -13 6 0 9 -3 8 -7 -1 -5 3 -18 10 -30 7 -13 10 -23
6 -23 -4 0 0 -8 9 -17 8 -10 17 -24 19 -32 2 -8 21 -51 44 -95 23 -45 50 -99
61 -121 12 -22 21 -44 22 -48 0 -4 7 -15 16 -23 8 -9 15 -22 15 -30 0 -8 3
-14 8 -14 4 0 18 -23 31 -50 14 -28 28 -50 31 -50 3 0 12 -16 20 -35 8 -19 17
-35 22 -35 4 0 8 -5 8 -12 0 -6 12 -27 27 -47 16 -20 33 -45 39 -56 27 -50 40
-71 56 -86 10 -9 18 -20 18 -24 0 -4 37 -58 83 -119 79 -107 94 -126 127 -166
8 -9 26 -32 40 -50 14 -18 38 -47 53 -64 15 -17 42 -49 60 -70 45 -56 391
-403 457 -458 30 -26 67 -57 82 -70 45 -39 64 -54 134 -109 38 -29 75 -59 81
-68 7 -8 13 -11 13 -7 0 4 6 1 14 -6 7 -7 24 -20 36 -28 13 -8 35 -25 49 -36
14 -12 76 -53 136 -92 61 -39 118 -78 128 -87 9 -8 22 -15 27 -15 6 0 20 -9
32 -20 12 -10 25 -17 30 -14 4 3 8 1 8 -4 0 -5 18 -17 40 -27 21 -10 48 -26
60 -37 11 -10 20 -16 20 -13 0 6 79 -34 90 -45 12 -12 93 -50 106 -50 8 0 14
-4 14 -10 0 -5 4 -10 9 -10 5 0 58 -23 117 -52 60 -29 111 -53 114 -53 3 -1
18 -7 33 -13 16 -7 30 -12 33 -12 2 0 27 -11 56 -25 28 -14 59 -25 68 -25 9 0
20 -4 25 -9 6 -5 19 -11 30 -13 11 -1 22 -5 25 -8 7 -7 99 -40 125 -46 11 -2
29 -8 40 -13 20 -10 183 -61 207 -65 7 -1 29 -7 48 -14 19 -6 48 -13 63 -16
15 -3 51 -12 80 -20 29 -8 88 -22 132 -31 44 -9 89 -19 100 -21 84 -18 198
-33 206 -28 5 3 9 1 9 -4 0 -5 6 -9 13 -9 6 0 37 -3 67 -7 30 -4 78 -9 105
-11 28 -3 64 -8 80 -10 164 -27 847 -26 995 0 14 3 52 7 85 10 33 3 70 7 81 9
12 2 45 7 75 11 30 3 68 9 84 12 40 9 45 10 48 12 1 1 20 4 42 7 22 2 47 6 55
7 8 2 36 7 63 12 26 4 50 11 52 16 3 4 12 6 20 2 9 -3 21 0 29 6 7 6 15 9 18
6 4 -4 92 17 128 32 8 3 20 5 26 4 7 -1 47 10 90 23 44 14 88 26 99 28 11 2
22 6 25 10 3 4 15 9 25 11 33 5 159 49 173 60 6 5 12 7 12 3 0 -3 24 4 53 15
28 12 58 22 65 22 6 0 12 4 12 8 0 4 12 10 27 14 15 3 46 15 70 26 23 10 47
19 52 19 6 0 11 4 11 10 0 5 7 7 15 4 8 -4 15 -1 15 5 0 6 9 11 19 11 11 0 23
5 26 10 4 6 11 8 16 5 5 -4 9 -1 9 4 0 6 5 11 12 11 15 0 233 107 271 133 15
10 27 15 27 11 0 -3 7 -1 15 6 20 17 95 59 118 67 9 3 17 9 17 14 0 5 5 9 10
9 6 0 36 16 66 35 30 19 59 35 64 35 6 0 10 3 10 8 0 4 20 18 45 32 25 14 45
27 45 30 0 3 16 14 35 24 19 11 35 23 35 28 0 5 5 6 10 3 6 -3 10 -2 10 4 0 5
8 12 19 16 10 3 31 17 45 30 14 13 26 22 26 19 0 -3 6 0 13 6 6 6 35 28 62 48
28 21 59 45 70 54 11 9 47 39 80 65 33 26 71 57 83 68 13 11 33 28 45 38 126
105 380 360 502 503 22 26 45 52 50 58 6 6 28 34 50 61 22 28 43 52 46 55 3 3
39 50 80 105 41 55 77 102 82 103 4 2 7 10 7 17 0 7 3 15 8 17 10 5 72 97 72
108 0 6 4 10 9 10 5 0 13 9 16 20 3 11 12 26 19 32 17 19 76 117 76 128 0 6 5
10 10 10 6 0 10 7 10 15 0 8 4 15 9 15 5 0 11 8 14 17 4 10 20 43 37 73 49 87
60 109 59 116 0 4 3 10 8 13 13 9 54 91 45 91 -4 0 -2 4 4 8 10 6 59 105 101
202 8 19 18 42 22 50 5 8 25 58 45 110 21 52 41 104 46 115 14 34 23 60 24 67
1 3 4 10 9 14 4 4 7 13 7 20 0 7 5 25 12 41 6 15 12 30 13 33 0 3 11 39 24 80
13 41 25 82 26 90 2 8 4 16 5 18 3 2 4 7 14 47 4 17 13 43 19 59 6 17 12 37
13 45 2 9 10 48 19 86 9 39 18 78 20 88 2 10 6 26 9 35 3 9 8 33 11 52 3 19
10 53 15 75 5 22 11 56 14 75 3 19 8 46 10 60 3 14 7 45 10 70 3 25 8 54 10
65 2 11 7 47 10 80 4 33 9 74 11 90 27 223 27 826 0 1030 -2 17 -7 57 -10 90
-3 33 -8 69 -10 80 -3 11 -7 38 -10 60 -6 46 -13 88 -20 130 -3 17 -8 46 -11
65 -2 19 -7 43 -10 52 -3 9 -7 27 -9 40 -14 76 -70 304 -84 348 -5 14 -17 52
-26 85 -28 97 -98 303 -126 370 -7 17 -13 32 -14 35 -6 17 -20 51 -36 87 -10
24 -19 45 -19 47 0 2 -14 35 -32 73 -17 37 -32 70 -33 73 -7 30 -18 50 -26 50
-5 0 -9 7 -9 15 0 22 -174 351 -204 386 -9 11 -16 26 -16 34 0 8 -4 15 -8 15
-5 0 -14 11 -19 23 -16 35 -198 309 -231 347 -7 8 -42 55 -80 105 -37 49 -74
97 -82 107 -8 9 -20 23 -25 30 -31 39 -159 183 -220 247 -116 122 -385 378
-385 366 0 -2 -13 9 -28 23 -15 15 -45 41 -66 57 -21 17 -43 35 -50 40 -6 6
-29 24 -51 40 -22 17 -45 35 -51 40 -6 6 -37 28 -68 50 -32 22 -69 50 -83 63
-14 12 -32 22 -39 22 -7 0 -14 3 -16 8 -4 11 -114 82 -126 82 -6 0 -12 4 -14
9 -4 12 -280 177 -303 181 -5 1 -17 7 -25 14 -16 14 -273 142 -277 138 -2 -1
-19 7 -38 18 -20 11 -42 20 -50 20 -8 0 -15 5 -15 10 0 6 -11 10 -25 10 -14 0
-25 5 -25 10 0 6 -8 10 -18 10 -10 0 -22 4 -28 10 -5 5 -18 11 -29 13 -11 2
-31 9 -45 14 -62 27 -136 55 -150 58 -8 2 -39 13 -67 24 -29 10 -53 17 -53 14
0 -3 -7 1 -17 8 -9 8 -17 13 -17 11 -1 -2 -8 -1 -16 2 -69 23 -277 80 -326 89
-10 2 -26 7 -34 10 -8 3 -28 8 -45 11 -16 2 -64 12 -105 20 -106 23 -121 26
-160 31 -19 3 -51 8 -70 12 -56 10 -62 11 -125 17 -33 4 -67 9 -75 11 -8 2
-53 7 -100 11 -47 3 -96 8 -110 11 -30 5 -657 13 -662 8z"/>
</g>
</svg>
